<svg viewBox="200 180 100 130" xmlns="http://www.w3.org/2000/svg"><defs><radialGradient gradientUnits="userSpaceOnUse" cx="5" cy="5" r="50" id="gradient-007" gradientTransform="matrix(10, 10, 10)" spreadMethod="reflect"><stop offset="0" style="stop-color: rgb(251, 165, 6);"/><stop offset="1" style="stop-color: rgb(252, 29, 167);"/></radialGradient></defs><path d="M -5.409 -30.744 L 7.961 -10.513 L 7.961 -30.931 Q 7.961 -32.921 8.816 -33.916 Q 9.67 -34.912 11.122 -34.912 Q 12.621 -34.912 13.487 -33.916 Q 14.353 -32.921 14.353 -30.931 L 14.353 -3.934 Q 14.353 0.585 10.607 0.585 Q 9.67 0.585 8.921 0.316 Q 8.172 0.047 7.516 -0.539 Q 6.86 -1.124 6.298 -1.908 Q 5.737 -2.693 5.175 -3.512 L -7.868 -23.509 L -7.868 -3.395 Q -7.868 -1.428 -8.781 -0.421 Q -9.694 0.585 -11.122 0.585 Q -12.597 0.585 -13.487 -0.433 Q -14.377 -1.452 -14.377 -3.395 L -14.377 -29.877 Q -14.377 -31.563 -14.002 -32.523 Q -13.557 -33.577 -12.527 -34.244 Q -11.497 -34.912 -10.303 -34.912 Q -9.366 -34.912 -8.699 -34.607 Q -8.031 -34.303 -7.528 -33.788 Q -7.025 -33.273 -6.498 -32.453 Q -5.971 -31.634 -5.409 -30.744 Z" transform="matrix(3, 0, 0, 2.5, 250, 300)" style="fill: rgba(0, 0, 0, 0); line-height: 80px; paint-order: fill; stroke: url('#gradient-007'); stroke-linecap: round; stroke-linejoin: round; stroke-width: 2px; text-transform: uppercase;"/></svg>
